<?xml version="1.0" encoding="UTF-8" standalone="no"?>
<svg
   xmlns:dc="http://purl.org/dc/elements/1.1/"
   xmlns:cc="http://creativecommons.org/ns#"
   xmlns:rdf="http://www.w3.org/1999/02/22-rdf-syntax-ns#"
   xmlns:svg="http://www.w3.org/2000/svg"
   xmlns="http://www.w3.org/2000/svg"
   xmlns:sodipodi="http://sodipodi.sourceforge.net/DTD/sodipodi-0.dtd"
   xmlns:inkscape="http://www.inkscape.org/namespaces/inkscape"
   height="1024"
   width="1024"
   id="svg3772"
   version="1.1"
   inkscape:version="0.48.4 r9943 custom"
   sodipodi:docname="Wikiversity-Mooc-Icon-Associated-units.svg">
  <metadata
     id="metadata3780">
    <rdf:RDF>
      <cc:Work
         rdf:about="">
        <dc:format>image/svg+xml</dc:format>
        <dc:type
           rdf:resource="http://purl.org/dc/dcmitype/StillImage" />
      </cc:Work>
    </rdf:RDF>
  </metadata>
  <defs
     id="defs3778" />
  <sodipodi:namedview
     pagecolor="#ffffff"
     bordercolor="#666666"
     borderopacity="1"
     objecttolerance="10"
     gridtolerance="10"
     guidetolerance="10"
     inkscape:pageopacity="0"
     inkscape:pageshadow="2"
     inkscape:window-width="2560"
     inkscape:window-height="1392"
     id="namedview3776"
     showgrid="false"
     inkscape:zoom="0.23046875"
     inkscape:cx="-360.13559"
     inkscape:cy="512"
     inkscape:window-x="1920"
     inkscape:window-y="22"
     inkscape:window-maximized="0"
     inkscape:current-layer="svg3772" />
  <path
     d="m 756.27509,542.99246 c -12.11755,-8.65167 -24.77366,-14.41076 -37.75985,-17.30335 -7.6788,-1.46799 -15.68767,-2.02393 -23.94845,-1.57223 -7.80909,0.43431 -15.25335,1.45931 -22.31541,3.05761 -5.29871,1.46801 -10.61479,3.37902 -15.93957,5.72435 -15.79191,6.96651 -29.43827,15.73979 -40.64374,26.34591 -10.6148,11.20547 -19.38809,24.86052 -26.35459,40.64374 -2.34533,5.31609 -4.25634,10.63217 -5.72435,15.93088 -1.5983,7.07075 -2.63199,14.50632 -3.05761,22.31541 -0.4517,8.26078 0.10423,16.26965 1.57223,23.94845 2.89258,12.98619 8.65168,25.6423 17.30335,37.75985 3.37901,4.72542 7.01862,9.03387 10.91013,12.92539 17.42496,17.39889 39.80985,26.6673 65.51296,29.62936 7.74828,0.88602 15.73978,1.45932 23.04506,3.89152 4.44745,1.47669 7.95676,3.54406 10.4932,6.09787 5.77646,5.73303 6.62773,13.98513 2.1716,23.6618 -2.73622,5.9415 -6.68854,11.68322 -11.2576,16.36521 l -2.42351,2.48431 c -3.41376,3.40507 -5.56799,5.55931 -6.12392,6.11524 -2.71885,2.74491 -5.29872,5.34214 -7.86989,7.94807 l -2.57119,2.53643 c -9.13811,9.19022 -18.31965,18.34572 -27.50119,27.49251 -19.77028,19.8224 -39.584,39.59269 -59.39772,59.38034 -6.5148,6.51482 -13.02962,13.02962 -19.54443,19.53575 -3.00551,2.99681 -6.1413,5.54194 -9.36396,7.63536 -1.56356,1.05974 -3.03156,1.94576 -4.49957,2.74491 -17.02537,8.59086 -35.98781,5.14236 -51.45833,-10.31946 -4.69066,-4.69066 -9.22497,-9.22497 -13.76797,-13.75928 -26.2764,-26.27642 -52.53544,-52.5702 -78.8466,-78.81186 -7.46163,-7.44426 -14.87983,-14.8364 -22.30671,-22.22854 -5.31609,-5.29003 -11.0057,-10.29341 -16.99064,-14.81903 -4.96863,-3.76122 -10.06755,-6.56693 -15.16648,-8.45188 -18.38045,-6.35846 -35.97045,-1.74597 -47.48863,11.51819 -3.30953,4.16947 -6.0805,9.09467 -8.15655,14.71479 -2.97944,8.04362 -3.99576,16.91245 -5.12499,25.50332 -4.25634,32.60011 -22.41095,59.44115 -48.62656,71.79322 -6.49744,3.17055 -13.45525,5.46376 -20.76053,6.75804 -6.9057,1.22478 -13.85484,1.48538 -20.71711,0.90339 -23.11455,-1.17267 -42.98038,-11.37052 -59.51064,-28.29166 -1.45931,-1.45064 -1.82415,-1.81546 -2.18028,-2.18029 -16.92115,-16.52157 -27.119,-36.39609 -28.29167,-59.50196 -0.59067,-6.86227 -0.3214,-13.8114 0.90339,-20.7171 1.29428,-7.30527 3.58749,-14.27178 6.75803,-20.76054 12.35209,-26.2156 39.2018,-44.36152 71.79324,-48.61787 8.59086,-1.12055 17.45969,-2.14554 25.50332,-5.12499 6.02837,-2.22372 11.2576,-5.25528 15.60948,-8.8862 12.63005,-11.42263 17.01669,-28.34377 11.15337,-45.4647 -2.41483,-6.38452 -5.21185,-11.48345 -8.97307,-16.45207 -4.52563,-5.97626 -9.529,-11.66586 -14.81903,-16.98195 -7.39214,-7.42688 -14.79297,-14.84509 -22.19379,-22.26329 -23.38383,-23.43595 -46.76767,-46.80241 -70.14282,-70.16886 l -8.71248,-8.71249 c -4.5343,-4.53431 -9.0773,-9.0773 -13.25547,-13.26415 -15.974318,-15.98301 -19.41414,-34.93677 -10.82327,-51.96215 0.79915,-1.468 1.68516,-2.92732 2.67541,-4.38663 2.16292,-3.33559 4.70804,-6.47139 7.70486,-9.47688 6.50612,-6.51482 13.02094,-13.02963 19.53574,-19.54444 19.77898,-19.81371 39.55795,-39.62743 59.38035,-59.39772 9.1468,-9.18154 18.29359,-18.36309 27.49251,-27.5012 l 2.53644,-2.57117 c 2.59723,-2.57987 5.20316,-5.15104 7.80039,-7.73091 0.69492,-0.7036 2.84915,-2.85783 6.25422,-6.2716 l 2.48432,-2.4235 c 4.68198,-4.56906 10.4237,-8.51269 16.36521,-11.2576 9.67667,-4.45613 17.92007,-3.60486 23.66179,2.1716 2.55382,2.53643 4.62119,6.04574 6.09787,10.49319 2.42351,7.30528 2.99681,15.29678 3.89152,23.04507 2.96206,25.7031 12.23048,48.07932 29.62936,65.50426 3.9002,3.89152 8.19998,7.53113 12.92539,10.91015 12.11755,8.65166 24.77366,14.41076 37.75986,17.30333 7.67878,1.46801 15.68766,2.02394 23.94845,1.57225 7.80909,-0.43433 15.25334,-1.45933 22.3154,-3.05762 5.29871,-1.46801 10.6148,-3.37901 15.93957,-5.72436 15.79191,-6.9665 29.43827,-15.73977 40.64375,-26.34589 10.6148,-11.20548 19.38808,-24.86053 26.35458,-40.64375 2.34533,-5.31608 4.25635,-10.63217 5.72435,-15.93089 1.5983,-7.07073 2.63198,-14.50631 3.05762,-22.3154 0.4517,-8.26078 -0.10423,-16.26966 -1.57224,-23.94844 -2.89258,-12.9862 -8.65167,-25.6423 -17.30334,-37.75986 -3.37902,-4.72541 -7.01863,-9.03388 -10.91015,-12.92539 -17.42494,-17.39889 -39.80984,-26.6673 -65.51294,-29.62937 -7.74829,-0.886 -15.73979,-1.45931 -23.04507,-3.89151 -4.44745,-1.47669 -7.95676,-3.54406 -10.49319,-6.09786 -5.77646,-5.73304 -6.62774,-13.98513 -2.1716,-23.6618 2.73622,-5.94151 6.68854,-11.68323 11.25759,-16.36521 l 2.42351,-2.48431 c 3.41376,-3.40508 5.568,-5.55931 6.12393,-6.11524 2.71885,-2.74491 5.29871,-5.34215 7.86989,-7.94807 l 2.57118,-2.53644 c 9.13811,-9.19023 18.31965,-18.34571 27.5012,-27.4925 19.77027,-19.82241 39.58399,-39.592693 59.39771,-59.371662 6.51481,-6.514812 13.02962,-13.029624 19.54444,-19.53575 3.0055,-2.996814 6.1413,-5.541934 9.36395,-7.635361 1.56356,-1.059743 3.03157,-1.945757 4.49956,-2.744907 17.02538,-8.590866 35.98783,-5.142359 51.45834,10.319463 4.69066,4.690665 9.22497,9.224974 13.76797,13.759283 26.27641,26.276407 52.53545,52.570194 78.8466,78.811854 7.46163,7.44426 14.87983,14.8364 22.30672,22.22854 5.31609,5.29003 11.00569,10.2934 16.99062,14.81903 4.96864,3.76122 10.06756,6.56693 15.16649,8.45188 18.38046,6.35846 35.97046,1.74597 47.48864,-11.51818 3.30953,-4.16949 6.0805,-9.09468 8.15654,-14.71479 2.97945,-8.04362 3.99575,-16.91246 5.12499,-25.50332 4.25635,-32.60013 22.41096,-59.441151 48.62656,-71.793236 6.49744,-3.170542 13.45526,-5.455069 20.76054,-6.758032 6.9057,-1.224785 13.85483,-1.485377 20.7171,-0.903387 23.11456,1.172666 42.98039,11.370519 59.51064,28.291659 1.45932,1.450631 1.82414,1.815461 2.18029,2.18029 16.92114,16.521566 27.119,36.396086 28.29166,59.501946 0.59069,6.86228 0.32142,13.81141 -0.90343,20.71711 -1.29423,7.30528 -3.58745,14.27178 -6.75799,20.76054 -12.35209,26.2156 -39.2018,44.36153 -71.79323,48.61787 -8.59086,1.12054 -17.4597,2.14554 -25.50332,5.12498 -6.02838,2.22372 -11.2576,5.25529 -15.60949,8.88621 -12.63005,11.42263 -17.01669,28.34378 -11.15336,45.4647 2.41482,6.38451 5.21185,11.48344 8.97306,16.45207 4.52563,5.97626 9.529,11.66587 14.81904,16.98195 7.39214,7.42688 14.79296,14.84508 22.19379,22.26328 26.28509,26.34591 52.58756,52.60494 78.85529,78.88135 4.53431,4.53431 9.07733,9.0773 13.25542,13.26416 15.97435,15.98301 19.41415,34.93677 10.82332,51.96214 -0.79912,1.46801 -1.68519,2.92732 -2.67539,4.38664 -2.16298,3.33559 -4.70803,6.47138 -7.70484,9.47689 -6.50613,6.51481 -13.02097,13.02962 -19.53579,19.54443 -19.77897,19.81372 -39.55793,39.62743 -59.38034,59.39772 -9.14679,9.18154 -18.2936,18.36308 -27.49251,27.50119 l -2.53643,2.57118 c -2.59724,2.57986 -5.20316,5.15105 -7.8004,7.73091 -0.69491,0.7036 -2.84915,2.85784 -6.25422,6.2716 l -2.48431,2.42351 c -4.68199,4.56905 -10.42371,8.51269 -16.36521,11.25759 -9.67667,4.45614 -17.92008,3.60486 -23.6618,-2.1716 -2.55381,-2.53644 -4.62118,-6.04575 -6.09787,-10.4932 -2.42351,-7.30527 -2.99681,-15.29678 -3.89152,-23.04505 -2.96206,-25.70312 -12.23047,-48.07932 -29.62936,-65.50428 -3.89152,-3.9002 -8.19997,-7.54849 -12.92539,-10.91882 z"
     id="path3774"
     style="fill:#929292;fill-opacity:1"
     inkscape:connector-curvature="0" />
</svg>
